<?xml version="1.0" encoding="UTF-8"?>
<svg id="Layer_2" data-name="Layer 2" xmlns="http://www.w3.org/2000/svg" viewBox="0 0 983.67 941.72">
  <defs>
    <style>
      .cls-1 {
        fill: #6b3402;
      }

      .cls-2 {
        fill: #0a0a0a;
      }

      .cls-3 {
        fill: #2f1318;
      }

      .cls-4 {
        fill: #d0d0d0;
      }

      .cls-5 {
        fill: #f4f4f4;
      }

      .cls-6 {
        fill: #4b8108;
      }

      .cls-7 {
        fill: #c15845;
      }

      .cls-8 {
        fill: #ccc;
      }

      .cls-9 {
        fill: #b35845;
      }

      .cls-10 {
        fill: #db2907;
      }

      .cls-11 {
        fill: #e65b3b;
      }

      .cls-12 {
        fill: #4b7208;
      }

      .cls-13 {
        fill: #de4c2e;
      }

      .cls-14 {
        fill: #e9e9e9;
      }

      .cls-15 {
        fill: #f5f5f5;
      }

      .cls-16 {
        fill: #416300;
      }

      .cls-17 {
        fill: #ce3d1c;
      }

      .cls-18 {
        fill: #773402;
      }

      .cls-19 {
        fill: #cfcfcf;
      }

      .cls-20 {
        fill: #ba2907;
      }
    </style>
  </defs>
  <g id="muscle">
    <g>
      <path class="cls-3" d="M466.89,118.14c7.09-3.77,19.36-4.86,25.88-8.58,5.84-3.33,18.13-16.78,25.75-22.2,48.66-34.65,104.75-39.68,160.12-17.63,46.98,18.71,82.66,63.04,137.9,58.42-13.28,32.97-39.57,59.84-71.92,74.41,25.98,18.69,49.26,40.64,69.96,64.99,66.84-25.94,155.51,54.26,160.84,118.81.55,6.62-.2,14.19-.06,20.98.82,38.43,9.92,77.15,8.05,116.95-1.36,29.03-15.93,111.47-48.97,118.87-11.6,2.6-33.34-6.14-39.46.5-1.72,1.86-14.33,40.57-17.34,47.59-36.72,85.61-103.02,154.84-184.32,199.31-192.57,105.32-435.64,42.5-557.07-137.46-8.03,2.49-18.85.99-26.46,2.5-19.09,3.79-30.19,16.87-51.85-.25-9.45-7.47-36.8-63.5-41.65-77.24-13.72-38.84-15.7-79.01-15.01-119.94.13-7.5,3.33-18.21,3.11-24.94-.17-5.36-3.59-12.03-4.05-18-4.64-60.41,35.23-142.41,103.38-145.32,50.82-122.04,165.27-213.78,295.17-238.31,12.03-38.29,29.91-77.88,56.47-108.37,12.32-14.14,22.32-25.09,42.95-22.95,21.32,2.21,44.57,34.76,32.01,53.96-5.36,8.2-35.3,29.25-45.51,40.41-1.73,1.89-19.03,22.46-17.95,23.5Z"/>
      <path class="cls-7" d="M247.56,603.55c.18.36.37.73.53,1.1-37.84-21.35-89.74-29.2-114.3,15.07-10.14,18.28-4.03,20.32-5.55,38.41-.9,10.73-6.34,22.51-13.52,30.43,2.63-18.52,2.4-36.32-4.49-53.94-.84.95-1.35.9-2.03.09-8.3-9.92-17.06-19.1-26.54-27.92-7.75-8.01-14.01-17.56-15.2-28.87,2.13-.37,3.06-1.46,2.81-3.24-19.42-.68-36.4-8.5-50.94-20.98-1.25,42.91-.31,84.64,15.21,125.14,5.81,15.16,20.81,43.58,29.54,57.38,1.69,2.67,3.66,4.49,6.19,6.3.68-.85,1.36-1.8.68-2.68,16.69,4.99,29.79-4.12,38.72-17.24,65.54-5.89,131.9-39.56,170.34-95.04.37,2.82,1.39,3.84,3.05,3.07.02-.08.03-.17.05-.25-8.6-11.86-23.83-17.1-34.55-26.83Z"/>
      <path class="cls-10" d="M616.72,269.09c-26.37-13.92-55.67-18.49-84.9-15.09-28.93,9.03-54.74,26.72-84.92,31.98l4.01,14.97,39.94-14.49c-28.55,40.36-78.1,45.01-118.39,18.49l42.47,3.98c-3.76-4.22-3.84-13.4-6.2-17.26-2.96-4.85-36.24-11.68-43.41-12.53-83.95-10.02-146.38,42.39-169.44,119.96-1.6,5.37-8.7,33.57-7.78,36.99.12.45,5.67,4.3,7.01,6.25,10.79,15.73,12.03,27.79,5.78,45.68-4.31,12.32-7.76,6.11-5.07,22.54,3.68,22.42,13.95,43.24,24.31,63.12,20.45-17.62,48.32-21.75,69.9-3.48-1.04,1.68-3.72-.51-4.49-.51h-22.98c-9.34,0-24.52,8.2-31.46,14.51,5.75,6.19,12.58,11.63,16.43,19.35,10.73,9.74,25.96,14.97,34.55,26.83.39-2.17-.06-6.55,1.94-7.73,4.39,11.44,3.6,22.14,4.01,33.96,20.64,13.19,41.67,26.37,63.09,39.55,128.83,67.43,267.81,18.86,328.33-112.8,45.13-98.18,45.21-257.29-62.76-314.27Z"/>
      <path class="cls-11" d="M742.93,699.02c11-17,18-34,28-51,3.14-5.02,4.7-10.03,5.67-15.29-20.26-6.27-39.97-14.67-58.98-23.65-25.36,45.3-59.76,84.39-104.37,111.49-6.79,34.12-15.05,67.92-24.27,101.44,66.97-13.02,115.96-66,153.95-122.99Z"/>
      <path class="cls-17" d="M776.61,632.72c-.98,5.26-2.54,10.28-5.67,15.29-10,17-17,34-28,51-37.99,56.99-86.97,109.97-153.95,122.99-7.22,26.28-15.04,52.39-23.2,78.36,135.46-23.91,253.71-126.22,294.7-257.73-28.73,3.04-56.8-1.53-83.88-9.91Z"/>
      <path class="cls-17" d="M881.42,463.89c-.45-.96-11.7-7.58-15.74-13.77-3.16-4.84-6.24-16.76-7.16-17.82-.4-.46-10.41-5.01-11.02-5.08-1.29-.15-15.43,10.82-20.46,12.62-3.95,1.41-7.89,2.29-11.77,2.71.56,2.15,1.11,4.3,1.65,6.46,2.83,11.34-.36,16.15-5.66,21.19,21.33,4.47,41.21,17.88,55.21,35.55-2.76-7.24,15.88-39.85,14.94-41.86Z"/>
      <path class="cls-17" d="M721.94,227.22c-23.37-15.64-17.36-8.29-42.74-8.14-44.68.27-96.23-19.61-133.3-43.6-4.87-3.15-20.53-17.29-23.83-18.13-4.94-1.25-24.78-1.11-31.66-1.3-5.11-.14-37.63-.6-39.31,1.25-6.24,24.62-10.29,50.32-10.06,75.86,41.23-6.48,80.87-2.65,121.25-4.81,1.36-.09,2.7-.17,4.05-.24.53-.03,1.07-.06,1.6-.1-.53.04-1.07.07-1.6.1,37.22-1.81,70.09,7.5,97.78,24.53.27.12.55.24.82.37,4,1,8.27,3.48,12.27,4.48s5.73,1.52,9.73,2.52c17,3,22.2,16.92,35.2,25.92,3,2,5.8,3.08,8.8,6.08,11.04,8.79,20.71,18.55,29.24,29.08,5.36-13.09,14.83-24.54,26.2-33.61-18.42-22.02-40.5-44.26-64.42-60.27Z"/>
      <path class="cls-11" d="M441.04,233.17c.1,12,1.15,23.96,3.35,35.77,36.3-14.25,69.31-35.21,109.04-39.77.23-.03.45-.05.67-.07-.06-.03-.12-.05-.17-.08.06.02.12.05.17.08,2.75-.31,5.47-.55,8.17-.74-40.37,2.16-80.01-1.66-121.25,4.81Z"/>
      <path class="cls-11" d="M816.93,449.02c-.54-2.16-1.09-4.31-1.65-6.46-27.74,2.99-52.44-18.16-54.56-47.32-.62-8.49,3.19-16.49,2.81-21.8-.28-3.89-6.8-14.08-7.68-21.29-1.34-11.04.39-21.48,4.31-31.05.71-1.74-11.57-13.08-13.13-14.64-4.44-4.47-9.11-8.74-14-12.73-3.98-4.16-7.94-8.35-12.14-12.29-12.63-11.95-31.07-23.3-48.02-30.02-3.92-1.56-24.3-8.06-28.22-9.04-.27-.13,19.72,10.39,19.44,10.27,70.84,43.55,107.85,137.58,97.5,225.14,16.08-9.19,33.3-11.01,49.67-7.58,5.3-5.04,8.49-9.85,5.66-21.19Z"/>
      <path class="cls-17" d="M230.24,722.04c-17.43,10.46-36.43,18.39-56.07,23.5,41.1,61.24,103.06,106.75,171.25,133.89l24.89-69.62c-45.69-18.07-84.88-43.01-125.73-73.65-5.45-3.89-9.61-8.44-14.34-14.11Z"/>
      <path class="cls-11" d="M277.6,682.58c-13.54,15.57-29.65,28.82-47.36,39.46,4.37,5.82,7.8,9.87,12.69,13.98,39.08,32.85,81.69,55.71,127.38,73.78l22.59-63.2c-43.03-11.73-81.93-34.83-115.3-64.01Z"/>
      <path class="cls-20" d="M288.06,656.61c2.59-.74,2.49-.4,5.29,1.2,35.22,20.16,57.7,41.21,98.84,54.01,190.48,59.23,324.23-103.21,313.43-283.46-5.72-95.44-70.12-184.47-174.31-172.35l.5-2c118.5-37.01,205.65,67.09,211.83,177.29,11.65,207.59-195.95,383.56-394.67,276.79-10.12-5.44-60.42-39.16-61.97-48.09-.33-1.9,1.06-3.2,1.05-3.38Z"/>
      <path class="cls-7" d="M934.43,460.8c3.71-1.01,2.59,1.92-.06,3.6,9.88,29.1,11.98,65.26,5.5,95.82-9.67,45.55-30.84,54.74-74.22,51.34-27.13-2.13-49.51-10.09-73.72-20.59l-.36-2.29,2.29-1.6c14.11,2.2,29.82-.76,39.65-11.74-22,10.05-47.13,7.23-67.49-5.37.78.86.29,1.86-.43,2.73-5.62,2.46-13.29-5.23-17.06-9.57-4.15-4.78-13.72-20.55-11.95-26.44.05-.17,1.66,2.61-.96.05,16.76-65.83,99.88-66.28,124.06-8.67,6.79,16.18,7.42,34.94,25.79,44.63-12.59-25.29-10.31-50.43-.73-76.17,1.16-3.11,13.07-29.73,14.73-29.73h14.49c2.8,0,17.22-4.58,20.48-5.99Z"/>
      <path class="cls-5" d="M890.47,447.81c.31-2.32,2.22-3,5.71-2.04,15.55,5.56,31.4-1.47,43.11-12.17-17.75,13.04-36.07,15.04-56.34,6.28l-1.48,1.94c-1.71-1.71-3.87-3.23-3.99-5.98,4.8-1.3,9.76-2.07,14.34-4.16,4.93-2.25,13.78-10.12,15.34-10.63,10.2-3.35,22.96-1.19,30.26-14.19-16.19,5.43-33.05,2.18-44.37-11.09l-12.58-20.89v17.48c0,6.36,11.22,18.82,10.99,19.94-1.05,5.15-17.08,5.89-21.23,5.29-38-5.53-33.69-60.75-19.74-85.67-22.1,14.32-28.58,45.08-19.98,68.93-34.56-16.62-27.77-63.06-7.98-88.9-26.11,10.12-35.54,42.91-26.98,67.92-49.41-26.03-8.94-87.54,32.2-97.18,60.39-14.16,141.86,62.61,130.34,123.35-5.71,30.09-37.46,53.54-67.63,41.77Z"/>
      <path class="cls-17" d="M395.94,166.09c-113.74,27.1-214.14,105.1-259.74,213.77,16.96,5.45,29.09,19.25,37.95,33.98,10.91-78.89,74.81-141.81,149.67-153.15,22.71-13.28,47.23-19.6,72.69-26.66-2.36-20.86-2.63-46.62-.57-67.94Z"/>
      <path class="cls-11" d="M403.93,268.99c-3.92-13.14-5.91-21.66-7.42-34.95-25.45,7.06-49.98,13.37-72.69,26.66,25.97-3.93,53.25-1.67,80.1,8.3Z"/>
      <path class="cls-15" d="M87.25,553.71c-11.74,6.09-27.9,5.15-39.94.47-77.32-30.03,4.68-214.35,91.78-155.72,17.34,11.67,34.78,39.93,17.1,58.34-.66-24.51-22.49-47.43-46.97-48.94,22.53,13.55,43.83,43.61,29.46,69.91-4.95-19.5-21.78-39.39-43.45-38.94,24.02,15.1,43.65,52.43,18.98,75.91-.98-1.44-.69-3.17.84-5.19-6.55,3.51-13.77,5.93-21.67,7.25-3.29,3.29,16.71-1.22,17.46-1.91l1.37,1.85c-6.76,5.02-16.01,5.88-23.98,3.99,6.18-10.27,5-22.44,9.99-31.95-6.92,2.95-5.92-2.71-9.98-6-1.58,21.99-22.15,47.29-45.96,37.96,4.2,8.01,16.16,10.75,24.45,12.03,3.35.52,6.72-1.28,8.97-1.01,4.91.6,15.59,10.35,23.51,6.97-.83,5.04-3.63,7.77-6.99,10.98l-1.34-.92c-6.92,2.88-14.38,4.58-21.82,5.3-12.39,1.2-2.13.71,4.25.1,3.78-.36,7.5-1.03,11.2-1.88l2.72,1.39Z"/>
      <path class="cls-12" d="M778.58,145.11c-.26.96-.55,1.9-.97,2.78-3.58,7.47-26.66,22.22-35.03,26.94-47.97,27.03-107.18,24.01-156.42,2.23l-.39,1.01c-27.47-13.35-57.51-31.82-72.93-58.94,69.05-17.59,128,20.81,192.81,34.46-43.74-14.73-82.21-42.89-128.87-49.46l-18.74-2.32c-1.41-1.19-.79-1.95.97-3.09,8.82-5.69,39.88-3.14,50.76-.98,29.41,8.36,58.04,19.36,85.88,32.99,25.91,11.61,52.38,15.47,80.32,12.2l2.63,2.15Z"/>
      <path class="cls-17" d="M409.94,899.37c27.66,4.7,55.54,9.42,83.8,7.89l16.25-75.07c-22.64-.22-45.28-2.56-67.92-5.61l-32.13,72.79Z"/>
      <path class="cls-11" d="M472.05,758.69l-29.97,67.89c9.61,2.4,21.13,4.56,34.26,5.61,12.68,1.01,24.04.77,33.66,0,5.61-25.89,11.21-51.78,16.82-77.67l-54.77,4.17Z"/>
      <path class="cls-9" d="M934.43,460.8c9.44-4.11,19.07-12.4,25.96-19.98,9.36,46.11,10.54,93.59-3.53,138.81-2.44,7.84-14.25,40.41-18.94,44-13.48,10.32-18.6-.23-27.99-1.06-8.58-.76-26.5,4.58-36.9,5.1-51.96,2.59-103.39-14.52-148.47-38.63,5.48-17.03,6.68-35.08,11.06-52.32,3.04-1.99,1.5-.58,2.12,1.36,4.65,14.46,12.76,29.48,27.85,34.61l2.41-.32c6.35,6.29,14.16,11.35,22.72,14.04l.85,2.26,36.2,14.25c24.93,6.27,76.45,15.43,94.5-6.93,22.15-27.45,21.29-79.31,15.68-112.25-.66-3.88-5.58-18.02-5.54-19.52.08-2.72,4.69-2.13,2.01-3.43Z"/>
      <path class="cls-6" d="M590.76,76.18c29.91-3.48,58.31,2.41,85.92,11.99,36.3,14.96,65.4,45.74,104.9,52.95,5.34,1.59.16,6.6-3,4-9.89-.81-19.47,1.43-29.51,1.04-64.74-2.54-122.4-64.99-191.27-45l18.98,3.01c-17.15-2.41-34.78-2.49-51.94-.49,18.45-12.08,43.73-25.17,65.93-27.48Z"/>
      <path class="cls-17" d="M136.29,514.8c-.73.34-7.02,9.68-10.07,12.45-2.2,2-10.53,6.09-10.82,6.65-.8,1.56.25,5.59-.44,8.07-3.68,13.33-7.99,20.83-20.8,27.35,4.06,17.65,15.38,31.96,25.56,46.33,5.86-15.47,19.76-29.86,35.65-37.84-6.3-19.23-8.13-40.51-9.98-60.84-4.51-1.16-8.61-2.39-9.1-2.16Z"/>
      <path class="cls-17" d="M151.58,518.37c-1.94-.35-4.11-.86-6.19-1.4,1.32,14.51,2.64,29.5,5.58,43.89-1.09-14.16-.48-28.33.62-42.49Z"/>
      <path class="cls-11" d="M176.65,513.74c-6.9,1.78-13.64,4.92-20.94,5.07-1.1.02-2.54-.16-4.13-.44-1.1,14.16-3.1,27.8-.62,42.49,1.18,5.77,2.6,11.45,4.41,16.95,6.25-3.14,12.8-5.29,19.3-6.11,6.3-.8,14.01.59,20.48,0-9.53-18-15.53-37.81-18.5-57.96Z"/>
      <path class="cls-9" d="M69.27,742.53l-4.99-7.99c10.68,7.69,24.84,5.27,34.43-3.03,3.16-2.74,6.81-9.93,9.23-10.75,4.39-1.47,15.56-1.26,21.46-2.51,60.18-12.8,114.07-40.99,147.93-93.66l4.73,6.05c-14.03,60.97-93.76,101.38-151.37,107.87-6.87.77-16.64-1.2-22.9.08-12.93,2.64-19.77,17.37-38.52,3.94Z"/>
      <path class="cls-7" d="M539.81,779.49c2.86-4.86,11.51-6.2,17.13-7.08,18.38-2.84,19.38,12.77,16.15,26.27-7.95,34.11-17.89,68.09-29.82,101.93l1.59-.03c.48-2.97,3.1-6.53,3.95-2.21-.65,1.35-.33,4.36-1.66,5.03l-38.29,3.95c11.25-42.35,22.5-84.82,30.96-127.87Z"/>
      <path class="cls-7" d="M405.94,763.51c2.05,2.22,4.44,4.17,7.16,5.86,25.44,18.51,16.8,40.2,3.75,64.38-10.62,18-19.08,36.68-25.37,56.04,1.16.51,1.99,1.38,2.48,2.6.5,3.02-1.29,2.04-3.22,1.75-10.15-1.56-19.98-6.5-29.78-9.32,16.24-39.85,28.35-81.65,44.99-121.3Z"/>
      <path class="cls-1" d="M479.87,50.2c3.09,3.79,9.63,8.06,13.98,10.48-58.55,52.72-74.74,131.55-63.63,207.5.79,5.43,8.31,34.35,7.78,36.12-.37,1.22-6.52,3.25-8.57,1.67-1.33-1.03-7.5-19.76-8.5-23-6.95-25.38-8.31-47.76-6.4-74.66,4.03-56.65,17.73-115.66,60.43-156.3.57-.54,1.37-.85,2.22-1.17s1.77-.5,2.69-.65Z"/>
      <path class="cls-18" d="M420.93,282.97c-25.77-84.01-13.23-186.04,51.94-248.75.71,5.51,3.54,11.73,7,15.98-35.94,32.13-53.18,78.58-59.78,125.54-3.21,22.86-6.09,54.97-4.13,77.73.86,9.95,5.61,19.63,4.97,29.5Z"/>
      <path class="cls-9" d="M539.81,779.49c1.78-9.07,1.87-18.72,4.22-27.74l50.72-18.2c-6.15,26.44-12.19,52.91-19.27,79.12-6.79,25.14-15.81,62.92-26.69,85.7-1.74-2.63-1.24,3.5-2.63,4.05-.26.1-6.19.86-5.33-1.51,9.17-27.4,18.81-55.15,25.65-83.25s16.77-55.59-26.69-38.17Z"/>
      <path class="cls-9" d="M405.94,763.51c1.67-3.99,3.3-7.93,4.59-12.06l43.35,7.54-59.92,133.4-4.99-.03c-.27-.54.32-1.41.4-2,3.33-23.36,36.75-68.88,38.56-92.37.89-11.59-7.83-19.03-15.46-26.49-3.75-3.66-6.55-2.29-6.51-7.97Z"/>
      <path class="cls-16" d="M781.58,141.11c3.06.56,4.68,1.4,7.98,0-45.35,72.88-133.52,71.12-203.79,36.96-1.01-1.75-1.99-2.58.99-1.5,70.93,25.71,136.01,22.86,191.82-31.47,1.99-1.94,5.4-1.36,3-4Z"/>
      <path class="cls-5" d="M830.53,416.86c-21.61,22.64-56.78.12-51.93-28.99,5.37,6.82,17.62,6.53,22.91,9.54,6.52,3.71,15.84,20.57,29.02,19.44Z"/>
      <path class="cls-5" d="M178.18,447.82c24.71,24.14-5.66,66.02-35.96,50.42v-1.96c10.79-2.95,11.61-15.03,15.92-21.04,2.22-3.1,8.05-6.11,11.84-11.14s6.52-10.32,8.2-16.29Z"/>
      <path class="cls-9" d="M69.27,574.69c1.35-.21,10.51-.29,10.94.06.94.76,5.27,18.38,7.5,22.96,6.28,12.88,17.21,23.36,22.52,36.92l.5,7.99c-12.96-25.06-44.65-35.97-46.47-66.93,1.97.78,3.86-.82,5-1Z"/>
      <path class="cls-1" d="M510.84,48.2c-15.72.75-28.72-13.28-25.98-28.98,13.9,1.03,26.07,15.15,25.98,28.98Z"/>
      <path class="cls-4" d="M881.48,441.82l-2-4.98c19.06,5.04,25.21,10.59,45.31,2.84,3.51-1.35,20.62-13.17,21.62-10.83-8.43,11.19-25.22,21.19-39.45,21.05-5.33-.05-11.32-3.42-16.5-2.08-2.57-1-7.02-4.03-8.99-5.99Z"/>
      <path class="cls-19" d="M87.25,553.71c-17.38,4.42-35.86,4.82-49.95-7.98,19.81,10.21,37.22,7.34,56.94,0l-2,3.98c-1.71,1.64-2.76,2.84-5,4Z"/>
      <path class="cls-19" d="M112.23,516.75c-7.19.6-15,6.23-21.95,1.51,1.9-6.64,10.96-4.5,17.93-7.02,4.22-1.53,7.21-5.15,11.5-6.48-1.02,2.48-3.79,8.3-5.48,10-.72.73-.96,1.23-2,2Z"/>
      <path class="cls-6" d="M676.68,88.16l-42.59-10.85c-13.32-.46-30.27-2.49-43.32-1.13,30.32-3.86,58.03.49,85.92,11.99Z"/>
      <path class="cls-3" d="M521.83,156.09c-8.61-3.16-14.32-13.11-19.98-19.96l19.98,19.96Z"/>
      <path class="cls-3" d="M652.69,503.76c-6.2-4.92-13.87-8.54-21.9-8.93-.22,10.87-15.15,20.86-18.29,28.17-1.85,4.31-2.36,13.43-4.04,18.94-18.2,59.5-49.09,130.46-124.06,124.64-62.83-4.88-109.03-71.37-125.42-126.85-10.44,3.16-17.96,11.25-24.95,18.98-3.63-35.11,42.31-57.35,65.92-30.98-4.81-.27-9.5.1-14.17,1.31-1.41.37-6.5,1.28-5.8,3.67,74.02,40.66,187.58,39.94,234.76-39.94l-13.96.52c13.54-21.54,47.46-14.58,51.92,10.47Z"/>
      <path class="cls-3" d="M611.74,430.84c9.26-.13,20.12.59,27.98,5.98-28.16,1.03-54.9,9.63-76.43,27.98,27.34,31.48-1.56,66.82-39.5,60.49-3.4-.57-24.98-10.66-19.42-11.55,16.82,8.52,49.99-.47,50.46-22.52.67-31.33-45.24-18.59-58.96-4.44,4.95-11.84,17.31-21.1,28.96-25.99-26.53-32.89-35.76-130.97,17.12-142.21,57.09-12.14,79.13,70.02,69.8,112.26Z"/>
      <path class="cls-3" d="M436.9,515.75c-33.64-27.82-78.46-30.25-119.87-21.99,9.65-10.16,22.71-16.91,36.96-16.98-23.35-34.05-13.99-126.67,44.21-105.64,40.59,14.66,57.25,80.67,42.46,117.9-5.1,12.84-11.91,11.19-3.77,26.72Z"/>
      <path class="cls-15" d="M307.32,298.96c5.82,0,7.72,7.81,2.56,10.49-5.59,2.91-10.71,5.44-11.74,6.08-21.04,13.11-39.38,31.18-53.07,51.83-2.74,4.14-23.06,48.76-25.96,29.01-5.6-38.07,49.5-97.42,87.43-97.42h.78Z"/>
      <path class="cls-3" d="M419.92,375.88c-25.39-15.46-64.1-40.93-90.92-14.51l-12.96,19.49c.98-68.67,86.14-56.74,103.88-4.99Z"/>
      <path class="cls-3" d="M505.85,307.45c6.75-47.54,75.49-53.04,81.43-2.5-30.84-31.91-65.6-15.12-81.43,20.99.58-5.78-.79-12.9,0-18.48Z"/>
      <path class="cls-3" d="M448.91,677.59c39.75,19.17,87.96,13.57,117.86-19.98-12.33,48.98-88.41,56.54-117.86,19.98Z"/>
      <path class="cls-2" d="M158.18,672.61c36.37,11.68,69.62-9.33,84.9-41.97.1,41.72-52.33,72.69-84.9,41.97Z"/>
      <path class="cls-2" d="M765.59,572.69c-1.07-1.24-6.75-9.16-5.98-9.99,22.38,18.6,54.79,22.81,79.9,6.99-8.12,17.39-30.5,22.62-47.94,18.98-8.28-1.73-20.44-9.54-25.97-15.98Z"/>
      <path class="cls-8" d="M877.98,411.85c3.63-.24,10.47-6.41,11.49.98-9.43,4.81-20,5.38-28.97-.98,5.78-.28,11.71.39,17.48,0Z"/>
      <path class="cls-19" d="M144.2,496.78c17.6-.1,35.68-9.37,40.95-26.98,1.25,19.99-23.52,37.89-40.95,26.98Z"/>
      <path class="cls-13" d="M496.98,623.43h0c-.89-2.01.95-4.17,3.07-3.59,10.77,2.95,21.52,9.03,26.71,19.06.63,1.21.17,2.69-.99,3.41-32.21,20.08-73.46,7.77-98.5-18.12-1.22-1.26-.88-3.37.69-4.15,21.35-10.64,45.79-6.27,65.19,6.64,2.17,1.44,4.88-.86,3.82-3.24Z"/>
      <path class="cls-14" d="M558.79,557.72c-36.2,51.5-122.88,48.97-157.86-2.5,48.82,22.25,108.55,24.14,157.86,2.5Z"/>
      <path class="cls-5" d="M572.79,444.82c1.87-13.01,1.3-26.27-2.03-38.96l-18.96,6.99c3.11-9.63,12.54-24.01,12.69-25.46.58-5.67-14.12-19.35-20.43-20.25-23.75-3.38-27.57,32.1-26.22,48.7-9.91-29.36,1.64-96.03,45.48-81.95,32.84,10.55,43.31,68.19,35.23,97.24l-25.76,13.69Z"/>
      <path class="cls-5" d="M358.99,459.68c-1.34-3.1-2.72-7.02-3.7-11.64-1.12-5.29-1.39-9.98-1.33-13.68-.86-27.3,12.14-48.51,27.86-51.28,11.86-2.09,25.84,4.44,38.51,22.87,16.76,24.37,22.26,67.7,6.17,92.76-16.19-9.79-8.66-11.18-9.52-25.46-.46-7.55-2.02-15.17-4.07-22.43l-19.94,6.97c2.01-9.34,11.86-25.78,11.83-27.3-.13-6.06-15.34-19.23-22.36-19.68-7.95-.51-14.31,5.38-18.43,12.72-3.41,6.08-5.02,13-5.02,19.97v16.16Z"/>
    </g>
    <path class="cls-10" d="M218.84,571.18c.19,1.41,1.23,2.84,2.52,4.27,6.08,6.75,10.66,9.87,13.27,11.25,13.84,7.27,66.02,2.61,68.79-13.47,1.79-10.39-16.41-24.6-33.74-27.46-25.49-4.21-52.14,15.59-50.84,25.42Z"/>
    <ellipse class="cls-15" cx="219.83" cy="419.99" rx="7.75" ry="4.41" transform="translate(-220.33 595.99) rotate(-84.17)"/>
  </g>
</svg>